<?xml version="1.0" encoding="UTF-8"?>
<!-- Generator: Adobe Illustrator 19.0.0, SVG Export Plug-In . SVG Version: 6.00 Build 0) -->
<svg xmlns="http://www.w3.org/2000/svg" xmlns:xlink="http://www.w3.org/1999/xlink" id="Capa_1" x="0px" y="0px" viewBox="0 0 512 512" style="enable-background:new 0 0 512 512;" xml:space="preserve"> <circle style="fill:#535B70;" cx="256" cy="255.995" r="255.995"/> <circle style="fill:#F7B12F;" cx="256" cy="255.995" r="255.995"/> <path style="fill:#51B0E0;" d="M497.675,81.605v253.926c-4.19,12.831-9.362,25.213-15.433,37.062 c-22.141,43.206-56.204,79.285-97.853,103.913c-37.657,22.277-81.521,35.181-128.384,35.484c-0.575,0.01-1.16,0.01-1.735,0.01 c-0.575,0-1.16,0-1.734-0.01c-46.863-0.303-90.727-13.207-128.384-35.484C82.504,451.878,48.441,415.798,26.3,372.592 c-6.071-11.849-11.243-24.231-15.433-37.062V81.605H497.675z"/> <g> <path style="fill:#F9F9F9;" d="M254.271,107.988V512c-0.575,0-1.16,0-1.734-0.01c-5.611-20.459-24.346-35.484-46.581-35.484 h-81.803C82.503,451.878,48.44,415.798,26.3,372.593V59.673h179.656c16.948,0,31.858,8.725,40.479,21.932 C251.387,89.191,254.271,98.25,254.271,107.988z"/> <path style="fill:#F9F9F9;" d="M482.242,59.673v312.92c-22.141,43.206-56.204,79.285-97.853,103.913h-81.803 c-4.848,0-9.529,0.711-13.949,2.048c-15.84,4.765-28.243,17.439-32.632,33.436c-0.575,0.01-1.16,0.01-1.734,0.01V107.988 c0-9.738,2.873-18.808,7.837-26.383c6.154-9.425,15.516-16.572,26.529-19.884c4.42-1.337,9.101-2.048,13.949-2.048H482.242z"/> </g> <path style="fill:#E8E8E8;" d="M288.637,61.721v416.833c-15.84,4.765-28.243,17.439-32.632,33.436c-0.575,0.01-1.16,0.01-1.734,0.01 V107.988c0-9.738,2.873-18.808,7.837-26.383C268.262,72.18,277.624,65.033,288.637,61.721z"/> <path style="fill:#F96D8C;" d="M160.564,282.535H56.068c-5.767,0-10.441,4.675-10.441,10.441v21.43 c0,5.767,4.675,10.441,10.441,10.441h104.495c5.767,0,10.441-4.675,10.441-10.441v-21.43 C171.006,287.209,166.331,282.535,160.564,282.535z"/> <g> <path style="fill:#535B70;" d="M438.691,143.441h-130.61c-5.771,0-10.449-4.678-10.449-10.449l0,0 c0-5.771,4.678-10.449,10.449-10.449h130.61c5.771,0,10.449,4.678,10.449,10.449l0,0 C449.14,138.763,444.462,143.441,438.691,143.441z"/> <path style="fill:#535B70;" d="M438.691,228.823h-130.61c-5.771,0-10.449-4.678-10.449-10.449l0,0 c0-5.771,4.678-10.449,10.449-10.449h130.61c5.771,0,10.449,4.678,10.449,10.449l0,0 C449.14,224.144,444.462,228.823,438.691,228.823z"/> <path style="fill:#535B70;" d="M438.691,356.894h-130.61c-5.771,0-10.449-4.678-10.449-10.449l0,0 c0-5.771,4.678-10.449,10.449-10.449h130.61c5.771,0,10.449,4.678,10.449,10.449l0,0 C449.14,352.216,444.462,356.894,438.691,356.894z"/> <path style="fill:#535B70;" d="M438.691,186.131h-130.61c-5.771,0-10.449-4.678-10.449-10.449l0,0 c0-5.771,4.678-10.449,10.449-10.449h130.61c5.771,0,10.449,4.678,10.449,10.449l0,0 C449.14,181.453,444.462,186.131,438.691,186.131z"/> <path style="fill:#535B70;" d="M438.691,271.513h-130.61c-5.771,0-10.449-4.678-10.449-10.449l0,0 c0-5.771,4.678-10.449,10.449-10.449h130.61c5.771,0,10.449,4.678,10.449,10.449l0,0 C449.14,266.835,444.462,271.513,438.691,271.513z"/> <path style="fill:#535B70;" d="M438.691,314.204h-130.61c-5.771,0-10.449-4.678-10.449-10.449l0,0 c0-5.771,4.678-10.449,10.449-10.449h130.61c5.771,0,10.449,4.678,10.449,10.449l0,0 C449.14,309.526,444.462,314.204,438.691,314.204z"/> <path style="fill:#535B70;" d="M438.691,399.585h-130.61c-5.771,0-10.449-4.678-10.449-10.449l0,0 c0-5.771,4.678-10.449,10.449-10.449h130.61c5.771,0,10.449,4.678,10.449,10.449l0,0 C449.14,394.907,444.462,399.585,438.691,399.585z"/> <path style="fill:#535B70;" d="M200.46,143.441H69.85c-5.771,0-10.449-4.678-10.449-10.449l0,0c0-5.771,4.678-10.449,10.449-10.449 h130.61c5.771,0,10.449,4.678,10.449,10.449l0,0C210.908,138.763,206.23,143.441,200.46,143.441z"/> <path style="fill:#535B70;" d="M200.46,228.823H69.85c-5.771,0-10.449-4.678-10.449-10.449l0,0c0-5.771,4.678-10.449,10.449-10.449 h130.61c5.771,0,10.449,4.678,10.449,10.449l0,0C210.908,224.144,206.23,228.823,200.46,228.823z"/> <path style="fill:#535B70;" d="M200.46,356.894H69.85c-5.771,0-10.449-4.678-10.449-10.449l0,0c0-5.771,4.678-10.449,10.449-10.449 h130.61c5.771,0,10.449,4.678,10.449,10.449l0,0C210.908,352.216,206.23,356.894,200.46,356.894z"/> <path style="fill:#535B70;" d="M200.46,186.131H69.85c-5.771,0-10.449-4.678-10.449-10.449l0,0c0-5.771,4.678-10.449,10.449-10.449 h130.61c5.771,0,10.449,4.678,10.449,10.449l0,0C210.908,181.453,206.23,186.131,200.46,186.131z"/> <path style="fill:#535B70;" d="M200.46,271.513H69.85c-5.771,0-10.449-4.678-10.449-10.449l0,0c0-5.771,4.678-10.449,10.449-10.449 h130.61c5.771,0,10.449,4.678,10.449,10.449l0,0C210.908,266.835,206.23,271.513,200.46,271.513z"/> <path style="fill:#535B70;" d="M200.46,314.204H69.85c-5.771,0-10.449-4.678-10.449-10.449l0,0c0-5.771,4.678-10.449,10.449-10.449 h130.61c5.771,0,10.449,4.678,10.449,10.449l0,0C210.908,309.526,206.23,314.204,200.46,314.204z"/> <path style="fill:#535B70;" d="M200.46,399.585H69.85c-5.771,0-10.449-4.678-10.449-10.449l0,0c0-5.771,4.678-10.449,10.449-10.449 h130.61c5.771,0,10.449,4.678,10.449,10.449l0,0C210.908,394.907,206.23,399.585,200.46,399.585z"/> </g> <polygon style="fill:#F44E72;" points="380.387,113.899 353.275,98.226 326.162,113.899 326.162,59.673 380.387,59.673 "/> <rect x="232.107" y="171.875" transform="matrix(0.7071 -0.7071 0.7071 0.7071 -86.9078 247.2827)" style="fill:#E8E8E8;" width="45.871" height="113.347"/> <g> <rect x="266.916" y="255.89" transform="matrix(0.7071 -0.7071 0.7071 0.7071 -104.3449 279.0608)" style="fill:#D6D6D6;" width="35.536" height="19.191"/> <path style="fill:#D6D6D6;" d="M198.744,204.682l80.152,80.152c-5.617-5.617-12.982-8.426-20.339-8.426 c-7.357,0-14.721,2.809-20.339,8.426l-15.55,15.55l-7.174-7.174l-25.127-25.127l-7.174-7.174l15.55-15.55 C209.978,234.124,209.97,215.907,198.744,204.682z"/> </g> <path style="fill:#F44E72;" d="M169.155,289.297l21.213-21.213l25.127,25.127l-27.79,27.79c-2.757,2.757-7.422,1.899-9.016-1.66 l-10.679-23.832C167.066,293.401,167.522,290.93,169.155,289.297z"/> <path style="fill:#E22952;" d="M176.647,314.783l2.042,4.558c1.594,3.559,6.259,4.418,9.016,1.66l27.791-27.791l-7.8-7.8 l-27.791,27.79C178.974,314.132,177.822,314.642,176.647,314.783z"/> <path style="fill:#F44E72;" d="M476.194,101.878l-165,165l-94.512-94.512l165-165c8.28-8.28,21.703-8.28,29.982,0l64.531,64.531 C484.474,80.175,484.474,93.599,476.194,101.878z"/> <path style="fill:#E22952;" d="M476.194,101.878L311.187,266.884l-14.991-14.991L476.194,71.896l0,0 C484.474,80.175,484.474,93.599,476.194,101.878z"/> <g> </g> <g> </g> <g> </g> <g> </g> <g> </g> <g> </g> <g> </g> <g> </g> <g> </g> <g> </g> <g> </g> <g> </g> <g> </g> <g> </g> <g> </g> </svg>